<?xml version="1.0" encoding="UTF-8" standalone="no"?>
<!DOCTYPE svg PUBLIC "-//W3C//DTD SVG 1.1//EN"
 "http://www.w3.org/Graphics/SVG/1.1/DTD/svg11.dtd">
<!-- Generated by graphviz version 2.43.0 (0)
 -->
<!-- Title: %3 Pages: 1 -->
<svg width="736pt" height="95pt"
 viewBox="0.00 0.00 736.00 94.53" xmlns="http://www.w3.org/2000/svg" xmlns:xlink="http://www.w3.org/1999/xlink">
<g id="graph0" class="graph" transform="scale(1 1) rotate(0) translate(4 90.53)">
<title>%3</title>
<polygon fill="white" stroke="transparent" points="-4,4 -4,-90.53 732,-90.53 732,4 -4,4"/>
<!-- &#45;1 -->
<g id="node1" class="node">
<title>&#45;1</title>
<polygon fill="lightgray" stroke="black" points="508,-86.53 482,-86.53 482,-68.53 508,-68.53 508,-86.53"/>
<text text-anchor="middle" x="495" y="-75.33" font-family="Times,serif" font-size="9.00">&#45;1</text>
</g>
<!-- 0 -->
<g id="node17" class="node">
<title>0</title>
<ellipse fill="lightblue" stroke="black" cx="347" cy="-16.26" rx="16.03" ry="16.03"/>
<text text-anchor="middle" x="347" y="-14.06" font-family="Times,serif" font-size="9.00">0</text>
</g>
<!-- &#45;1&#45;&gt;0 -->
<g id="edge1" class="edge">
<title>&#45;1&#45;&gt;0</title>
<path fill="none" stroke="green" stroke-width="0.18" d="M481.97,-71.78C479.02,-70.71 475.9,-69.58 473,-68.53 428.58,-52.46 415.77,-52.57 373,-32.53 371.83,-31.98 370.64,-31.39 369.45,-30.78"/>
<polygon fill="green" stroke="green" stroke-width="0.18" points="370.95,-27.61 360.51,-25.83 367.56,-33.74 370.95,-27.61"/>
</g>
<!-- 1 -->
<g id="node18" class="node">
<title>1</title>
<ellipse fill="lightblue" stroke="black" cx="398" cy="-16.26" rx="16.03" ry="16.03"/>
<text text-anchor="middle" x="398" y="-14.06" font-family="Times,serif" font-size="9.00">1</text>
</g>
<!-- &#45;1&#45;&gt;1 -->
<g id="edge2" class="edge">
<title>&#45;1&#45;&gt;1</title>
<path fill="none" stroke="green" stroke-width="0.31" d="M481.92,-68.53C466.1,-58.87 439.22,-42.45 420.15,-30.8"/>
<polygon fill="green" stroke="green" stroke-width="0.31" points="421.86,-27.74 411.5,-25.51 418.21,-33.71 421.86,-27.74"/>
</g>
<!-- &#45;2 -->
<g id="node2" class="node">
<title>&#45;2</title>
<polygon fill="lightgray" stroke="black" points="552,-86.53 526,-86.53 526,-68.53 552,-68.53 552,-86.53"/>
<text text-anchor="middle" x="539" y="-75.33" font-family="Times,serif" font-size="9.00">&#45;2</text>
</g>
<!-- &#45;2&#45;&gt;0 -->
<g id="edge3" class="edge">
<title>&#45;2&#45;&gt;0</title>
<path fill="none" stroke="red" stroke-width="0.28" d="M525.58,-71.4C522.76,-70.39 519.8,-69.38 517,-68.53 453.92,-49.23 434.07,-57.48 373,-32.53 371.77,-32.03 370.54,-31.47 369.3,-30.89"/>
<polygon fill="red" stroke="red" stroke-width="0.28" points="370.58,-27.6 360.12,-25.95 367.27,-33.77 370.58,-27.6"/>
</g>
<!-- &#45;2&#45;&gt;1 -->
<g id="edge4" class="edge">
<title>&#45;2&#45;&gt;1</title>
<path fill="none" stroke="green" stroke-width="0.22" d="M525.99,-71.06C502.34,-61.12 452.01,-39.96 421.99,-27.35"/>
<polygon fill="green" stroke="green" stroke-width="0.22" points="423.23,-24.07 412.66,-23.42 420.52,-30.53 423.23,-24.07"/>
</g>
<!-- &#45;3 -->
<g id="node3" class="node">
<title>&#45;3</title>
<polygon fill="lightgray" stroke="black" points="596,-86.53 570,-86.53 570,-68.53 596,-68.53 596,-86.53"/>
<text text-anchor="middle" x="583" y="-75.33" font-family="Times,serif" font-size="9.00">&#45;3</text>
</g>
<!-- &#45;3&#45;&gt;0 -->
<g id="edge5" class="edge">
<title>&#45;3&#45;&gt;0</title>
<path fill="none" stroke="green" stroke-width="0.19" d="M569.61,-71.27C566.8,-70.28 563.82,-69.3 561,-68.53 478.99,-45.92 452.62,-62.5 373,-32.53 371.76,-32.06 370.51,-31.54 369.27,-30.97"/>
<polygon fill="green" stroke="green" stroke-width="0.19" points="370.53,-27.68 360.06,-26.1 367.26,-33.87 370.53,-27.68"/>
</g>
<!-- &#45;3&#45;&gt;1 -->
<g id="edge6" class="edge">
<title>&#45;3&#45;&gt;1</title>
<path fill="none" stroke="red" stroke-width="0.24" d="M569.54,-71.52C566.72,-70.51 563.77,-69.47 561,-68.53 512.53,-52.1 455.37,-34.54 423.24,-24.83"/>
<polygon fill="red" stroke="red" stroke-width="0.24" points="423.94,-21.38 413.35,-21.85 421.92,-28.08 423.94,-21.38"/>
</g>
<!-- &#45;4 -->
<g id="node4" class="node">
<title>&#45;4</title>
<polygon fill="lightgray" stroke="black" points="640,-86.53 614,-86.53 614,-68.53 640,-68.53 640,-86.53"/>
<text text-anchor="middle" x="627" y="-75.33" font-family="Times,serif" font-size="9.00">&#45;4</text>
</g>
<!-- &#45;4&#45;&gt;0 -->
<g id="edge7" class="edge">
<title>&#45;4&#45;&gt;0</title>
<path fill="none" stroke="green" stroke-width="0.18" d="M613.63,-71.2C610.81,-70.21 607.83,-69.25 605,-68.53 503.93,-42.57 471.29,-67.56 373,-32.53 371.75,-32.08 370.5,-31.58 369.25,-31.03"/>
<polygon fill="green" stroke="green" stroke-width="0.18" points="370.5,-27.73 360.02,-26.2 367.26,-33.94 370.5,-27.73"/>
</g>
<!-- &#45;4&#45;&gt;1 -->
<g id="edge8" class="edge">
<title>&#45;4&#45;&gt;1</title>
<path fill="none" stroke="red" stroke-width="0.18" d="M613.58,-71.39C610.76,-70.39 607.8,-69.38 605,-68.53 540.44,-48.86 462.87,-31.21 423.55,-22.67"/>
<polygon fill="red" stroke="red" stroke-width="0.18" points="424.25,-19.24 413.73,-20.56 422.77,-26.09 424.25,-19.24"/>
</g>
<!-- &#45;5 -->
<g id="node5" class="node">
<title>&#45;5</title>
<polygon fill="lightgray" stroke="black" points="684,-86.53 658,-86.53 658,-68.53 684,-68.53 684,-86.53"/>
<text text-anchor="middle" x="671" y="-75.33" font-family="Times,serif" font-size="9.00">&#45;5</text>
</g>
<!-- &#45;5&#45;&gt;0 -->
<g id="edge9" class="edge">
<title>&#45;5&#45;&gt;0</title>
<path fill="none" stroke="green" stroke-width="0.31" d="M657.65,-71.14C654.83,-70.16 651.84,-69.22 649,-68.53 528.82,-39.21 490.02,-72.65 373,-32.53 371.75,-32.1 370.49,-31.6 369.23,-31.06"/>
<polygon fill="green" stroke="green" stroke-width="0.31" points="370.49,-27.77 360,-26.27 367.26,-33.98 370.49,-27.77"/>
</g>
<!-- &#45;5&#45;&gt;1 -->
<g id="edge10" class="edge">
<title>&#45;5&#45;&gt;1</title>
<path fill="none" stroke="green" stroke-width="0.19" d="M657.61,-71.3C654.79,-70.3 651.82,-69.32 649,-68.53 568.16,-45.71 469.99,-28.66 424.06,-21.28"/>
<polygon fill="green" stroke="green" stroke-width="0.19" points="424.48,-17.81 414.05,-19.7 423.38,-24.72 424.48,-17.81"/>
</g>
<!-- &#45;6 -->
<g id="node6" class="node">
<title>&#45;6</title>
<polygon fill="lightgray" stroke="black" points="728,-86.53 702,-86.53 702,-68.53 728,-68.53 728,-86.53"/>
<text text-anchor="middle" x="715" y="-75.33" font-family="Times,serif" font-size="9.00">&#45;6</text>
</g>
<!-- &#45;6&#45;&gt;0 -->
<g id="edge11" class="edge">
<title>&#45;6&#45;&gt;0</title>
<path fill="none" stroke="red" stroke-width="0.19" d="M701.66,-71.11C698.84,-70.12 695.85,-69.2 693,-68.53 553.66,-35.84 508.79,-77.74 373,-32.53 371.74,-32.11 370.48,-31.62 369.23,-31.09"/>
<polygon fill="red" stroke="red" stroke-width="0.19" points="370.47,-27.79 359.98,-26.32 367.26,-34.01 370.47,-27.79"/>
</g>
<!-- &#45;6&#45;&gt;1 -->
<g id="edge12" class="edge">
<title>&#45;6&#45;&gt;1</title>
<path fill="none" stroke="red" stroke-width="0.28" d="M701.62,-71.24C698.8,-70.24 695.83,-69.28 693,-68.53 595.46,-42.54 476.16,-26.48 424.23,-20.24"/>
<polygon fill="red" stroke="red" stroke-width="0.28" points="424.55,-16.75 414.2,-19.06 423.73,-23.71 424.55,-16.75"/>
</g>
<!-- &#45;7 -->
<g id="node7" class="node">
<title>&#45;7</title>
<polygon fill="lightgray" stroke="black" points="26,-86.53 0,-86.53 0,-68.53 26,-68.53 26,-86.53"/>
<text text-anchor="middle" x="13" y="-75.33" font-family="Times,serif" font-size="9.00">&#45;7</text>
</g>
<!-- &#45;7&#45;&gt;0 -->
<g id="edge13" class="edge">
<title>&#45;7&#45;&gt;0</title>
<path fill="none" stroke="red" stroke-width="0.64" d="M26.37,-71.22C29.19,-70.22 32.17,-69.27 35,-68.53 139.09,-41.3 266.68,-25.72 320.77,-19.91"/>
<polygon fill="red" stroke="red" stroke-width="0.64" points="321.29,-23.37 330.87,-18.84 320.56,-16.41 321.29,-23.37"/>
</g>
<!-- &#45;7&#45;&gt;1 -->
<g id="edge14" class="edge">
<title>&#45;7&#45;&gt;1</title>
<path fill="none" stroke="red" stroke-width="0.45" d="M26.34,-71.09C29.16,-70.11 32.15,-69.19 35,-68.53 181.75,-34.54 228.95,-79.71 372,-32.53 373.26,-32.11 374.52,-31.63 375.78,-31.1"/>
<polygon fill="red" stroke="red" stroke-width="0.45" points="377.74,-34.02 385.02,-26.33 374.53,-27.8 377.74,-34.02"/>
</g>
<!-- &#45;8 -->
<g id="node8" class="node">
<title>&#45;8</title>
<polygon fill="lightgray" stroke="black" points="70,-86.53 44,-86.53 44,-68.53 70,-68.53 70,-86.53"/>
<text text-anchor="middle" x="57" y="-75.33" font-family="Times,serif" font-size="9.00">&#45;8</text>
</g>
<!-- &#45;8&#45;&gt;0 -->
<g id="edge15" class="edge">
<title>&#45;8&#45;&gt;0</title>
<path fill="none" stroke="green" stroke-width="0.22" d="M70.39,-71.27C73.2,-70.28 76.18,-69.3 79,-68.53 166.25,-44.48 272.54,-27.78 320.85,-20.85"/>
<polygon fill="green" stroke="green" stroke-width="0.22" points="321.37,-24.31 330.78,-19.44 320.39,-17.38 321.37,-24.31"/>
</g>
<!-- &#45;8&#45;&gt;1 -->
<g id="edge16" class="edge">
<title>&#45;8&#45;&gt;1</title>
<path fill="none" stroke="red" stroke-width="0.21" d="M70.35,-71.13C73.17,-70.14 76.15,-69.21 79,-68.53 206.58,-37.91 247.73,-74.61 372,-32.53 373.25,-32.1 374.52,-31.61 375.77,-31.07"/>
<polygon fill="red" stroke="red" stroke-width="0.21" points="377.74,-33.99 385.01,-26.29 374.52,-27.78 377.74,-33.99"/>
</g>
<!-- &#45;9 -->
<g id="node9" class="node">
<title>&#45;9</title>
<polygon fill="lightgray" stroke="black" points="114,-86.53 88,-86.53 88,-68.53 114,-68.53 114,-86.53"/>
<text text-anchor="middle" x="101" y="-75.33" font-family="Times,serif" font-size="9.00">&#45;9</text>
</g>
<!-- &#45;9&#45;&gt;0 -->
<g id="edge17" class="edge">
<title>&#45;9&#45;&gt;0</title>
<path fill="none" stroke="green" stroke-width="0.33" d="M114.41,-71.35C117.23,-70.35 120.19,-69.35 123,-68.53 193.75,-47.65 279.16,-30.19 321.14,-22.1"/>
<polygon fill="green" stroke="green" stroke-width="0.33" points="321.91,-25.52 331.07,-20.2 320.6,-18.64 321.91,-25.52"/>
</g>
<!-- &#45;9&#45;&gt;1 -->
<g id="edge18" class="edge">
<title>&#45;9&#45;&gt;1</title>
<path fill="none" stroke="red" stroke-width="0.15" d="M114.36,-71.17C117.18,-70.18 120.16,-69.24 123,-68.53 231.45,-41.28 266.48,-69.52 372,-32.53 373.25,-32.09 374.51,-31.59 375.76,-31.04"/>
<polygon fill="red" stroke="red" stroke-width="0.15" points="377.74,-33.95 384.99,-26.23 374.5,-27.75 377.74,-33.95"/>
</g>
<!-- &#45;10 -->
<g id="node10" class="node">
<title>&#45;10</title>
<polygon fill="lightgray" stroke="black" points="164,-86.53 132,-86.53 132,-68.53 164,-68.53 164,-86.53"/>
<text text-anchor="middle" x="148" y="-75.33" font-family="Times,serif" font-size="9.00">&#45;10</text>
</g>
<!-- &#45;10&#45;&gt;0 -->
<g id="edge19" class="edge">
<title>&#45;10&#45;&gt;0</title>
<path fill="none" stroke="red" stroke-width="0.36" d="M164.12,-71.31C167.07,-70.37 170.12,-69.41 173,-68.53 225.7,-52.34 287.69,-34.32 321.62,-24.54"/>
<polygon fill="red" stroke="red" stroke-width="0.36" points="322.96,-27.8 331.6,-21.67 321.02,-21.07 322.96,-27.8"/>
</g>
<!-- &#45;10&#45;&gt;1 -->
<g id="edge20" class="edge">
<title>&#45;10&#45;&gt;1</title>
<path fill="none" stroke="red" stroke-width="0.21" d="M164.05,-71.05C167.01,-70.14 170.08,-69.25 173,-68.53 260.21,-46.78 287.72,-63.76 372,-32.53 373.24,-32.07 374.49,-31.55 375.74,-30.99"/>
<polygon fill="red" stroke="red" stroke-width="0.21" points="377.74,-33.89 384.95,-26.13 374.47,-27.7 377.74,-33.89"/>
</g>
<!-- &#45;11 -->
<g id="node11" class="node">
<title>&#45;11</title>
<polygon fill="lightgray" stroke="black" points="214,-86.53 182,-86.53 182,-68.53 214,-68.53 214,-86.53"/>
<text text-anchor="middle" x="198" y="-75.33" font-family="Times,serif" font-size="9.00">&#45;11</text>
</g>
<!-- &#45;11&#45;&gt;0 -->
<g id="edge21" class="edge">
<title>&#45;11&#45;&gt;0</title>
<path fill="none" stroke="green" stroke-width="0.3" d="M214.23,-70.07C240.39,-59.67 292.02,-39.13 322.62,-26.96"/>
<polygon fill="green" stroke="green" stroke-width="0.3" points="324.13,-30.13 332.12,-23.18 321.54,-23.62 324.13,-30.13"/>
</g>
<!-- &#45;11&#45;&gt;1 -->
<g id="edge22" class="edge">
<title>&#45;11&#45;&gt;1</title>
<path fill="none" stroke="green" stroke-width="0.2" d="M214.09,-71.19C217.04,-70.26 220.1,-69.34 223,-68.53 288.6,-50.13 308.83,-58.05 372,-32.53 373.23,-32.03 374.47,-31.48 375.7,-30.9"/>
<polygon fill="green" stroke="green" stroke-width="0.2" points="377.74,-33.78 384.89,-25.97 374.42,-27.61 377.74,-33.78"/>
</g>
<!-- &#45;12 -->
<g id="node12" class="node">
<title>&#45;12</title>
<polygon fill="lightgray" stroke="black" points="264,-86.53 232,-86.53 232,-68.53 264,-68.53 264,-86.53"/>
<text text-anchor="middle" x="248" y="-75.33" font-family="Times,serif" font-size="9.00">&#45;12</text>
</g>
<!-- &#45;12&#45;&gt;0 -->
<g id="edge23" class="edge">
<title>&#45;12&#45;&gt;0</title>
<path fill="none" stroke="red" stroke-width="0.38" d="M261.77,-68.29C278.02,-58.56 305.28,-42.24 324.59,-30.68"/>
<polygon fill="red" stroke="red" stroke-width="0.38" points="326.57,-33.57 333.35,-25.43 322.97,-27.57 326.57,-33.57"/>
</g>
<!-- &#45;12&#45;&gt;1 -->
<g id="edge24" class="edge">
<title>&#45;12&#45;&gt;1</title>
<path fill="none" stroke="red" stroke-width="0.23" d="M264.1,-71.24C292.93,-61.7 352.23,-41.74 372,-32.53 373.17,-31.98 374.36,-31.4 375.56,-30.79"/>
<polygon fill="red" stroke="red" stroke-width="0.23" points="377.44,-33.74 384.5,-25.84 374.05,-27.62 377.44,-33.74"/>
</g>
<!-- &#45;13 -->
<g id="node13" class="node">
<title>&#45;13</title>
<polygon fill="lightgray" stroke="black" points="314,-86.53 282,-86.53 282,-68.53 314,-68.53 314,-86.53"/>
<text text-anchor="middle" x="298" y="-75.33" font-family="Times,serif" font-size="9.00">&#45;13</text>
</g>
<!-- &#45;13&#45;&gt;0 -->
<g id="edge25" class="edge">
<title>&#45;13&#45;&gt;0</title>
<path fill="none" stroke="green" stroke-width="0.21" d="M304.81,-68.29C311.37,-60.36 321.55,-48.05 330.26,-37.51"/>
<polygon fill="green" stroke="green" stroke-width="0.21" points="333.16,-39.49 336.84,-29.55 327.77,-35.03 333.16,-39.49"/>
</g>
<!-- &#45;13&#45;&gt;1 -->
<g id="edge26" class="edge">
<title>&#45;13&#45;&gt;1</title>
<path fill="none" stroke="green" stroke-width="0.31" d="M311.9,-68.29C328.32,-58.56 355.86,-42.24 375.37,-30.68"/>
<polygon fill="green" stroke="green" stroke-width="0.31" points="377.4,-33.54 384.21,-25.43 373.83,-27.52 377.4,-33.54"/>
</g>
<!-- &#45;14 -->
<g id="node14" class="node">
<title>&#45;14</title>
<polygon fill="lightgray" stroke="black" points="364,-86.53 332,-86.53 332,-68.53 364,-68.53 364,-86.53"/>
<text text-anchor="middle" x="348" y="-75.33" font-family="Times,serif" font-size="9.00">&#45;14</text>
</g>
<!-- &#45;14&#45;&gt;0 -->
<g id="edge27" class="edge">
<title>&#45;14&#45;&gt;0</title>
<path fill="none" stroke="red" stroke-width="0.6" d="M347.86,-68.29C347.75,-61.7 347.59,-52.1 347.43,-43"/>
<polygon fill="red" stroke="red" stroke-width="0.6" points="350.93,-42.7 347.26,-32.76 343.93,-42.81 350.93,-42.7"/>
</g>
<!-- &#45;14&#45;&gt;1 -->
<g id="edge28" class="edge">
<title>&#45;14&#45;&gt;1</title>
<path fill="none" stroke="green" stroke-width="0.31" d="M354.95,-68.29C361.79,-60.18 372.5,-47.49 381.52,-36.79"/>
<polygon fill="green" stroke="green" stroke-width="0.31" points="384.23,-39.01 388,-29.11 378.88,-34.5 384.23,-39.01"/>
</g>
<!-- &#45;15 -->
<g id="node15" class="node">
<title>&#45;15</title>
<polygon fill="lightgray" stroke="black" points="414,-86.53 382,-86.53 382,-68.53 414,-68.53 414,-86.53"/>
<text text-anchor="middle" x="398" y="-75.33" font-family="Times,serif" font-size="9.00">&#45;15</text>
</g>
<!-- &#45;15&#45;&gt;0 -->
<g id="edge29" class="edge">
<title>&#45;15&#45;&gt;0</title>
<path fill="none" stroke="green" stroke-width="0.23" d="M390.91,-68.29C383.93,-60.18 373.01,-47.49 363.81,-36.79"/>
<polygon fill="green" stroke="green" stroke-width="0.23" points="366.37,-34.41 357.2,-29.11 361.07,-38.98 366.37,-34.41"/>
</g>
<!-- &#45;15&#45;&gt;1 -->
<g id="edge30" class="edge">
<title>&#45;15&#45;&gt;1</title>
<path fill="none" stroke="green" stroke-width="0.32" d="M398,-68.29C398,-61.7 398,-52.1 398,-43"/>
<polygon fill="green" stroke="green" stroke-width="0.32" points="401.5,-42.76 398,-32.76 394.5,-42.76 401.5,-42.76"/>
</g>
<!-- &#45;16 -->
<g id="node16" class="node">
<title>&#45;16</title>
<polygon fill="lightgray" stroke="black" points="464,-86.53 432,-86.53 432,-68.53 464,-68.53 464,-86.53"/>
<text text-anchor="middle" x="448" y="-75.33" font-family="Times,serif" font-size="9.00">&#45;16</text>
</g>
<!-- &#45;16&#45;&gt;0 -->
<g id="edge31" class="edge">
<title>&#45;16&#45;&gt;0</title>
<path fill="none" stroke="red" stroke-width="0.3" d="M433.96,-68.29C417.2,-58.46 388.99,-41.9 369.26,-30.32"/>
<polygon fill="red" stroke="red" stroke-width="0.3" points="371,-27.29 360.6,-25.24 367.46,-33.32 371,-27.29"/>
</g>
<!-- &#45;16&#45;&gt;1 -->
<g id="edge32" class="edge">
<title>&#45;16&#45;&gt;1</title>
<path fill="none" stroke="green" stroke-width="0.48" d="M441.05,-68.29C434.21,-60.18 423.5,-47.49 414.48,-36.79"/>
<polygon fill="green" stroke="green" stroke-width="0.48" points="417.12,-34.5 408,-29.11 411.77,-39.01 417.12,-34.5"/>
</g>
</g>
</svg>
